<?xml version="1.0" standalone="no"?>
<!DOCTYPE svg PUBLIC "-//W3C//DTD SVG 20010904//EN"
 "http://www.w3.org/TR/2001/REC-SVG-20010904/DTD/svg10.dtd">
<svg version="1.0" xmlns="http://www.w3.org/2000/svg"
 width="543.000000pt" height="354.000000pt" viewBox="0 0 543.000000 354.000000"
 preserveAspectRatio="xMidYMid meet">

<g transform="translate(0.000000,354.000000) scale(0.100000,-0.100000)"
fill="#000000" stroke="none">
<path d="M1080 2474 l0 -879 65 97 65 97 2 587 3 588 342 -458 341 -458 344
458 343 457 3 -891 2 -892 65 0 65 0 0 1087 0 1086 -72 -95 c-40 -52 -224
-295 -408 -541 -184 -245 -338 -445 -342 -444 -4 1 -187 242 -407 536 -221
294 -403 537 -406 539 -3 3 -5 -390 -5 -874z"/>
<path d="M4042 3287 l-62 -63 0 -442 0 -442 -413 0 -413 0 -64 -65 -64 -65
477 0 477 0 0 -515 0 -515 65 0 65 0 0 1085 c0 597 -1 1085 -3 1085 -1 0 -31
-28 -65 -63z"/>
<path d="M190 507 l0 -247 30 0 29 0 3 140 3 139 65 -104 c36 -58 67 -105 70
-105 3 0 36 48 73 107 l67 107 0 -142 0 -142 30 0 30 0 0 240 c0 132 -2 240
-3 240 -2 0 -46 -67 -98 -150 -52 -82 -96 -150 -99 -150 -3 1 -49 71 -102 157
l-98 157 0 -247z"/>
<path d="M828 647 c-20 -56 -59 -166 -87 -244 l-50 -143 29 0 c24 0 32 6 44
35 l15 35 90 0 89 0 12 -35 c10 -29 16 -35 41 -35 16 0 29 2 29 4 0 6 -170
479 -173 482 -2 2 -19 -43 -39 -99z m71 -155 c17 -46 31 -90 31 -98 0 -11 -15
-14 -65 -14 -36 0 -65 3 -65 8 0 10 64 192 66 189 2 -1 17 -40 33 -85z"/>
<path d="M1044 713 c8 -21 37 -102 65 -180 42 -116 51 -153 51 -207 l0 -66 30
0 c30 0 30 0 30 60 0 48 13 95 65 242 36 100 65 183 65 185 0 2 -13 3 -29 3
-27 0 -31 -5 -57 -77 -62 -174 -72 -198 -78 -183 -3 8 -25 69 -49 135 -42 117
-44 120 -75 123 l-32 3 14 -38z"/>
<path d="M1478 647 c-20 -56 -59 -166 -87 -244 l-50 -143 29 0 c24 0 32 6 44
35 l15 35 90 0 89 0 12 -35 c10 -29 16 -35 41 -35 16 0 29 2 29 4 0 6 -170
479 -173 482 -2 2 -19 -43 -39 -99z m71 -155 c17 -46 31 -90 31 -98 0 -11 -15
-14 -65 -14 -36 0 -65 3 -65 8 0 10 64 192 66 189 2 -1 17 -40 33 -85z"/>
<path d="M2030 505 l0 -245 30 0 30 0 0 65 0 65 90 0 90 0 0 -65 0 -65 30 0
30 0 0 245 0 245 -30 0 -30 0 0 -150 0 -150 -90 0 -90 0 0 150 0 150 -30 0
-30 0 0 -245z"/>
<path d="M2578 647 c-20 -56 -59 -166 -87 -244 l-50 -143 29 0 c24 0 32 6 44
35 l15 35 90 0 89 0 12 -35 c10 -29 16 -35 41 -35 16 0 29 2 29 4 0 6 -170
479 -173 482 -2 2 -19 -43 -39 -99z m71 -155 c17 -46 31 -90 31 -98 0 -11 -15
-14 -65 -14 -36 0 -65 3 -65 8 0 10 64 192 66 189 2 -1 17 -40 33 -85z"/>
<path d="M2910 506 l0 -246 30 0 30 0 0 65 0 65 43 0 c43 0 43 0 75 -65 30
-62 34 -65 68 -65 l35 0 -41 76 -42 76 25 26 c81 84 72 209 -20 279 -32 25
-47 28 -120 32 l-83 3 0 -246z m160 169 c35 -18 60 -62 60 -105 0 -69 -53
-120 -125 -120 l-35 0 0 120 0 120 35 0 c20 0 49 -7 65 -15z"/>
<path d="M3310 504 l0 -247 69 5 c95 7 164 46 207 116 38 63 48 114 33 182
-24 111 -125 190 -246 190 l-63 0 0 -246z m157 165 c105 -51 132 -189 56 -280
-29 -34 -94 -68 -130 -69 l-23 0 0 185 0 185 27 0 c15 0 46 -9 70 -21z"/>
<path d="M3684 713 c8 -21 46 -128 85 -237 40 -110 73 -202 75 -204 2 -2 21
48 41 110 21 62 41 116 44 120 4 5 25 -46 46 -112 21 -66 42 -117 46 -112 3 4
41 106 84 227 43 121 80 226 83 233 3 10 -4 13 -29 10 -33 -3 -33 -3 -84 -145
-27 -79 -52 -143 -55 -143 -3 0 -23 54 -45 120 -21 66 -41 117 -44 114 -3 -3
-24 -60 -47 -126 l-40 -122 -54 152 -54 152 -32 0 -33 0 13 -37z"/>
<path d="M4318 647 c-20 -56 -59 -166 -87 -244 l-50 -143 29 0 c24 0 32 6 44
35 l15 35 90 0 89 0 12 -35 c10 -29 16 -35 41 -35 16 0 29 2 29 4 0 6 -170
479 -173 482 -2 2 -19 -43 -39 -99z m71 -155 c17 -46 31 -90 31 -98 0 -11 -15
-14 -65 -14 -36 0 -65 3 -65 8 0 10 64 192 66 189 2 -1 17 -40 33 -85z"/>
<path d="M4650 506 l0 -246 30 0 30 0 0 65 0 65 43 0 c43 0 43 0 75 -65 30
-62 34 -65 68 -65 l35 0 -41 76 -42 76 25 26 c81 84 72 209 -20 279 -32 25
-47 28 -120 32 l-83 3 0 -246z m160 169 c35 -18 60 -62 60 -105 0 -69 -53
-120 -125 -120 l-35 0 0 120 0 120 35 0 c20 0 49 -7 65 -15z"/>
<path d="M5050 505 l0 -245 140 0 140 0 0 30 0 30 -110 0 -110 0 0 35 0 35 80
0 80 0 0 30 0 30 -80 0 -80 0 0 120 0 120 110 0 110 0 0 30 0 30 -140 0 -140
0 0 -245z"/>
</g>
</svg>
